<?xml version="1.0" encoding="utf-8"?>
<!-- Generated by IcoMoon.io -->
<!DOCTYPE svg PUBLIC "-//W3C//DTD SVG 1.1//EN" "http://www.w3.org/Graphics/SVG/1.1/DTD/svg11.dtd">
<svg version="1.1" xmlns="http://www.w3.org/2000/svg" xmlns:xlink="http://www.w3.org/1999/xlink" width="1024" height="1024" viewBox="0 0 1024 1024"><g fill="#669999" id="icomoon-ignore">
</g>
<path d="M698.24 416.96l-32.064-32.064c-5.92-5.92-15.488-5.92-21.376 0l-192.448 192.416-91.488-92.224c-5.952-5.92-15.488-5.92-21.44 0l-32.064 32.096c-5.92 5.92-5.92 15.488 0 21.376l134.176 135.136c5.92 5.888 15.488 5.888 21.376 0l235.328-235.328c5.952-5.92 5.952-15.488 0-21.408zM512 96c-229.76 0-416 186.24-416 416s186.24 416 416 416 416-186.24 416-416-186.24-416-416-416zM512 832c-176.704 0-320-143.296-320-320 0-176.736 143.296-320 320-320 176.736 0 320 143.264 320 320 0 176.704-143.264 320-320 320z"></path>
</svg>
